PathFileType	4	(X/Y/Z)	 s08c0401.trc
DataRate	CameraRate	NumFrames	NumMarkers	Units	OrigDataRate	OrigDataStartFrame	OrigNumFrames
200	200	5	50	mm	200	251	2000
Frame#	Time	racr			lacr			c7			jug			rlel			rdr			llel			ldr			s2			lic			ric			lasi			rasi			rpsi			lpsi			rgt			lgt			rth1			rth2			rth3			rth4			rlfc			rmfc			rsh1			rsh2			rsh3			rsh4			rlmal			rmmal			rcal			rtoe			rmt5			lth1			lth2			lth4			lth3			llfc			lmfc			llmal			lmmal			lcal			lmt5			lsh1			lsh2			lsh3			lsh4			ltoe			SBIKE			LBIKE			RBIKE			
		X1	Y1	Z1	X2	Y2	Z2	X3	Y3	Z3	X4	Y4	Z4	X5	Y5	Z5	X6	Y6	Z6	X7	Y7	Z7	X8	Y8	Z8	X9	Y9	Z9	X10	Y10	Z10	X11	Y11	Z11	X12	Y12	Z12	X13	Y13	Z13	X14	Y14	Z14	X15	Y15	Z15	X16	Y16	Z16	X17	Y17	Z17	X18	Y18	Z18	X19	Y19	Z19	X20	Y20	Z20	X21	Y21	Z21	X22	Y22	Z22	X23	Y23	Z23	X24	Y24	Z24	X25	Y25	Z25	X26	Y26	Z26	X27	Y27	Z27	X28	Y28	Z28	X29	Y29	Z29	X30	Y30	Z30	X31	Y31	Z31	X32	Y32	Z32	X33	Y33	Z33	X34	Y34	Z34	X35	Y35	Z35	X36	Y36	Z36	X37	Y37	Z37	X38	Y38	Z38	X39	Y39	Z39	X40	Y40	Z40	X41	Y41	Z41	X42	Y42	Z42	X43	Y43	Z43	X44	Y44	Z44	X45	Y45	Z45	X46	Y46	Z46	X47	Y47	Z47	X48	Y48	Z48	X49	Y49	Z49	X50	Y50	Z50	
251	1.2550	598.099188	1322.818535	-50.932436	617.793107	1360.877702	-354.787540	571.565541	1401.808149	-203.302199	545.398768	1248.031157	-220.944124	552.195125	1079.522534	86.232585	778.067482	940.744666	-34.001614	580.489706	1107.296428	-499.409307	784.601892	943.256297	-415.451814	-10.097603	1233.668233	-229.223549	160.319032	1195.425369	-378.456850	157.285015	1193.580974	-60.538181	168.145212	1141.179471	-344.040012	168.496874	1137.079755	-100.928725	33.954068	1262.736566	-173.616686	36.193693	1268.723672	-270.891211	58.177666	1114.152365	-34.064873	77.222909	1109.290537	-422.535015	170.134132	984.573841	-33.223493	245.491844	937.640938	-36.366768	286.180881	861.365288	-48.918474	271.758953	962.713002	-44.814474	366.610716	773.189468	-63.869669	346.014403	753.762588	-170.772890	329.070451	644.886568	-31.012745	353.696299	559.227383	-44.895038	330.434103	475.662022	-51.082794	381.770221	562.780854	-74.154609	322.615713	355.327908	-57.849350	336.676626	379.019139	-146.474016	252.084347	312.880958	-104.144524	546.816628	348.463719	-94.707717	463.391773	302.710933	-30.714709	153.938186	997.882118	-429.762208	225.578562	947.722308	-427.577133	252.839023	970.189421	-415.177002	262.422651	866.609998	-429.205950	316.235218	750.651907	-402.280350	322.575840	734.641690	-302.847149	33.494851	449.330044	-388.512297	58.807861	456.968606	-310.416666	-42.338310	446.097530	-348.274172	138.536505	334.277068	-414.608033	235.794327	652.462520	-421.754175	191.491636	582.623101	-398.383055	117.311701	535.333804	-399.883013	208.607984	573.020222	-363.917789	225.501661	339.104676	-346.488125	-135.817634	944.476295	-224.053322	26.426123	84.094831	-426.622198	18.063978	80.087660	-28.484191	
252	1.2600	602.713304	1319.502777	-51.060192	621.223311	1358.607611	-354.709365	576.050157	1399.421464	-203.003014	549.252759	1245.760387	-221.024490	553.007182	1076.870520	86.537253	777.911544	939.976766	-34.445145	580.607453	1105.864086	-499.567320	784.456666	942.497487	-415.343688	-6.946639	1234.259862	-226.853554	163.469245	1195.866072	-377.153490	162.075462	1191.209613	-59.410186	171.818396	1142.085547	-342.850897	172.605191	1134.915810	-100.306594	38.344921	1262.299024	-171.142359	40.168577	1269.098846	-268.772155	62.318539	1112.459208	-33.271705	80.839459	1111.460232	-421.713656	171.982148	981.138044	-32.757802	246.536930	932.936055	-36.073771	286.436147	855.927822	-48.786289	273.190749	957.595450	-44.512533	365.353483	767.000640	-63.555974	344.731190	748.550224	-171.465181	327.957550	638.587592	-30.846472	352.410364	552.830845	-44.994506	329.351425	469.303613	-51.075770	380.610073	556.512764	-74.298097	321.782288	349.035460	-57.801262	335.672885	372.686220	-146.564252	251.788381	306.121138	-104.534204	546.258085	341.728645	-94.593437	462.646291	296.068649	-30.709237	157.910870	1000.973391	-430.017829	229.981439	951.387825	-428.306044	257.041374	973.922186	-415.588491	267.313021	870.594909	-429.915289	322.077608	754.731692	-403.544084	335.737745	742.306016	-307.219906	36.152078	456.668573	-388.489110	69.384543	464.792712	-305.295437	-39.662617	454.478229	-348.159741	139.730696	340.346223	-414.565720	240.886522	657.293882	-422.623340	197.372893	590.591554	-402.835909	120.921368	541.742094	-400.258186	212.843682	578.172149	-364.711138	226.961017	344.062613	-346.512616	-135.715519	944.505829	-223.970424	26.436082	84.101598	-426.642084	18.066007	80.079454	-28.471259	
253	1.2650	606.684071	1315.781335	-52.796459	624.627831	1356.727853	-354.973147	580.501831	1397.208276	-202.614314	553.208040	1243.704641	-221.120626	553.559745	1074.226255	86.592701	777.809979	939.207911	-34.901433	581.042775	1104.516979	-499.625609	784.354588	941.690163	-415.045752	-3.006099	1234.360807	-224.506205	166.794449	1196.311506	-375.595243	166.983778	1188.785235	-58.267425	175.313310	1142.508207	-341.600205	176.879080	1132.720339	-99.541365	42.811573	1261.384154	-168.722030	44.326072	1269.337931	-266.489142	66.441797	1110.645416	-32.545654	84.576251	1113.596480	-420.836634	174.009759	978.047157	-32.092042	247.729964	928.443808	-35.792000	286.410688	851.002156	-48.531752	274.847552	952.811663	-44.386662	364.203692	761.054174	-63.436802	344.440133	742.626156	-170.554135	327.002332	632.437603	-30.631432	351.453217	546.775263	-44.956947	328.498411	463.324904	-51.005409	379.329655	550.500536	-74.001060	321.032005	342.850030	-57.737112	334.902126	366.434469	-146.579465	250.966267	300.317855	-104.506726	545.819018	335.268936	-94.273714	461.849705	289.439214	-30.779217	162.106553	1004.072950	-430.224311	234.764531	955.478689	-429.396036	261.289900	977.434928	-415.207445	272.663112	874.682273	-431.064111	328.108061	758.845522	-404.956759	347.915960	749.825190	-310.839460	39.430517	464.710846	-389.594837	72.328558	471.898550	-305.286777	-36.776190	462.889880	-348.050483	141.148283	346.434527	-414.548964	246.169409	662.090944	-423.496532	201.717308	595.937635	-403.537757	124.254554	548.340545	-400.703227	216.712079	582.422919	-363.878532	228.513581	348.975063	-346.571780	-135.580007	944.534186	-223.880834	26.435230	84.103092	-426.622690	18.077856	80.072313	-28.479899	
254	1.2700	611.266868	1313.014442	-52.872074	627.824513	1354.818154	-355.129222	584.979272	1395.207222	-202.194597	557.269271	1241.885572	-221.249860	553.889268	1071.744751	86.410395	777.586059	938.579171	-35.408077	581.778109	1103.312642	-499.649695	784.364050	940.740515	-414.330979	1.228767	1234.322378	-222.204947	170.205811	1196.880002	-374.047095	171.912731	1186.415344	-57.127711	178.753012	1142.646057	-340.445957	181.148403	1130.695606	-98.711666	47.367451	1260.701440	-166.438281	48.546256	1269.581958	-264.065518	70.659187	1108.782579	-31.729532	88.612056	1115.853739	-419.899132	176.139534	974.936949	-31.479151	249.140679	924.344158	-35.475474	286.361768	846.193455	-48.305784	276.547725	948.341960	-44.112026	363.191769	755.288086	-63.287732	341.747004	736.960786	-171.232537	326.386330	626.676453	-30.292566	350.650692	540.960605	-44.949544	327.856233	457.489354	-50.885979	379.108050	544.294346	-74.680061	320.262644	337.110161	-57.563363	334.371309	360.331541	-146.551918	250.075450	295.031475	-104.402053	544.828681	327.655593	-94.765195	460.836023	282.795322	-30.835016	166.390658	1007.211449	-430.524456	239.574763	959.339444	-430.054239	265.927942	981.437934	-415.601800	278.319389	879.135336	-432.757379	334.096270	763.072115	-406.386506	357.942118	756.078940	-313.468772	42.490433	472.098077	-389.568506	75.259422	479.270627	-305.264183	-33.920319	471.245586	-347.912406	142.541184	352.949348	-415.034681	251.545330	666.879139	-424.475270	206.346777	601.357247	-404.384643	128.202158	554.767486	-401.102720	221.473551	587.724537	-365.036793	230.220714	353.685618	-346.520986	-135.485717	944.569464	-223.954847	26.484907	83.982408	-426.536233	18.104149	80.066765	-28.486263	
255	1.2750	615.819482	1310.563018	-52.869078	630.902611	1353.393030	-355.523409	589.453383	1393.460616	-201.760250	561.512166	1240.518845	-221.472381	553.988616	1069.453470	86.041248	777.343333	937.990070	-35.951009	582.822243	1102.183491	-499.674884	784.339151	939.947848	-413.790713	6.173380	1233.962601	-220.311738	173.708768	1197.430617	-372.182151	176.808725	1183.785223	-55.822816	182.446485	1142.906303	-339.061123	185.539605	1128.503737	-98.026033	51.874378	1259.971809	-163.960574	52.864554	1269.726586	-261.731789	74.809116	1106.939273	-30.951797	92.885514	1118.117022	-418.869152	178.361263	972.044028	-30.836837	250.672664	920.465002	-35.062775	286.199155	841.782573	-48.150432	278.381951	944.023078	-43.845000	362.481928	749.899610	-63.051684	340.530214	731.692479	-170.975522	325.888877	621.112249	-29.884891	350.113684	535.418244	-44.749817	327.265068	451.925412	-50.745074	378.492006	538.787738	-74.477195	319.390061	331.563859	-57.467490	333.336979	354.897663	-146.416451	248.857066	290.014268	-104.198571	544.022904	320.621454	-94.614911	459.768386	276.302572	-30.720577	171.052892	1010.493174	-430.589617	244.914389	963.874346	-432.108801	270.691839	985.459025	-415.801219	283.835810	883.519801	-434.205756	340.615613	767.083987	-407.807020	364.647848	759.946993	-314.870802	45.862353	479.383130	-389.670920	78.484724	486.311544	-305.150495	-30.132598	479.411824	-347.755824	144.571284	358.712862	-414.711730	256.492496	672.173794	-425.941700	210.970286	606.707551	-405.048674	132.840021	561.897000	-403.045797	226.119779	592.734124	-365.622709	232.160373	358.532699	-346.550264	-135.268644	944.593295	-223.874400	26.505416	83.991651	-426.523971	18.092084	80.078127	-28.492850	
